<?xml version="1.0" encoding="UTF-8"?>
<svg id="Layer_1" xmlns="http://www.w3.org/2000/svg" version="1.1" viewBox="0 0 500 500">
  <!-- Generator: Adobe Illustrator 30.2.1, SVG Export Plug-In . SVG Version: 2.1.1 Build 1)  -->
  <defs>
    <style>
      .st0 {
        fill: #f80000;
      }
    </style>
  </defs>
  <g>
    <path d="M476.71,78.97l-3.56-22.11-21.54-6.32c-2.59-.73-27.13-7.86-90.47-24.22C290.5,8.18,257.37,1.46,257.05,1.38L250.01,0v17.74l3.56.73c1.38.24,33.53,6.8,103.27,24.79,65.61,16.93,88.94,23.73,89.83,23.97l11.01,3.24,1.86,11.34c.49,2.83,11.18,71.93-19.36,197.39-26.81,110.24-115.99,176.82-184.27,200.31l-5.91,2.02v18.47l11.58-4.05c72.41-24.95,167.1-95.58,195.53-212.62,31.35-129.03,20.09-201.36,19.6-204.36Z"/>
    <path d="M242.95,1.38c-.32.08-33.05,6.64-104.08,24.95-63.91,16.52-87.96,23.49-90.48,24.22l-21.54,6.32-3.56,22.11c-.49,3.08-11.75,75.33,19.6,204.36,28.43,117.04,123.12,187.67,195.53,212.62l11.58,4.05h0v-18.47h0s-5.91-2.02-5.91-2.02c-68.28-23.49-157.46-90.07-184.27-200.31-30.54-125.47-19.84-194.56-19.36-197.39l1.86-11.34,10.94-3.24c.97-.24,24.3-7.05,89.91-23.97,69.66-17.98,101.9-24.54,103.19-24.79l3.65-.73h0S250,0,250,0h0s-7.05,1.38-7.05,1.38Z"/>
  </g>
  <path class="st0" d="M414.59,273.04c24.7-101.65,21.3-164.51,19.6-182-10.04-2.83-35.56-9.88-83.99-22.35-60.32-15.55-92.88-22.51-100.19-24.05v409.03c61.64-22.11,140.69-82.21,164.58-180.62Z"/>
  <path d="M149.72,68.69c-48.36,12.47-73.87,19.52-83.91,22.35-1.7,17.58-5.02,80.67,19.6,182,23.89,98.41,102.95,158.51,164.59,180.63,0,0,0,0,0,0V44.63s0,0,0,0c-7.29,1.54-39.85,8.5-100.28,24.06Z"/>
</svg>